<?xml version="1.0" encoding="UTF-8"?>
<svg width="800" height="1200" xmlns="http://www.w3.org/2000/svg">
  <defs>
    <style>
      .title { font-family: Arial, sans-serif; font-size: 18px; font-weight: bold; text-anchor: middle; }
      .participant { font-family: Arial, sans-serif; font-size: 12px; text-anchor: middle; fill: #333; }
      .message { font-family: Arial, sans-serif; font-size: 10px; fill: #666; }
      .note { font-family: Arial, sans-serif; font-size: 10px; fill: #444; font-style: italic; }
      .box { fill: #f9f9f9; stroke: #333; stroke-width: 1; }
      .arrow { stroke: #333; stroke-width: 1; marker-end: url(#arrowhead); }
      .lifeline { stroke: #ddd; stroke-width: 1; stroke-dasharray: 5,5; }
    </style>
    <marker id="arrowhead" markerWidth="10" markerHeight="7" refX="9" refY="3.5" orient="auto">
      <polygon points="0 0, 10 3.5, 0 7" fill="#333" />
    </marker>
  </defs>
  
  <!-- Title -->
  <text x="400" y="30" class="title">Процесс валидации ESM-опроса</text>
  
  <!-- Participants -->
  <rect x="50" y="50" width="80" height="40" class="box"/>
  <text x="90" y="75" class="participant">👤 Пользователь</text>
  
  <rect x="150" y="50" width="80" height="40" class="box"/>
  <text x="190" y="75" class="participant">🤖 Telegram Bot</text>
  
  <rect x="250" y="50" width="80" height="40" class="box"/>
  <text x="290" y="75" class="participant">📝 Survey Command</text>
  
  <rect x="350" y="50" width="80" height="40" class="box"/>
  <text x="390" y="75" class="participant">🔍 MomentValidator</text>
  
  <rect x="450" y="50" width="80" height="40" class="box"/>
  <text x="490" y="75" class="participant">⭐ GoldenStandard</text>
  
  <rect x="550" y="50" width="80" height="40" class="box"/>
  <text x="590" y="75" class="participant">🧠 AI Validator</text>
  
  <rect x="650" y="50" width="80" height="40" class="box"/>
  <text x="690" y="75" class="participant">💾 База данных</text>
  
  <!-- Lifelines -->
  <line x1="90" y1="90" x2="90" y2="1150" class="lifeline"/>
  <line x1="190" y1="90" x2="190" y2="1150" class="lifeline"/>
  <line x1="290" y1="90" x2="290" y2="1150" class="lifeline"/>
  <line x1="390" y1="90" x2="390" y2="1150" class="lifeline"/>
  <line x1="490" y1="90" x2="490" y2="1150" class="lifeline"/>
  <line x1="590" y1="90" x2="590" y2="1150" class="lifeline"/>
  <line x1="690" y1="90" x2="690" y2="1150" class="lifeline"/>
  
  <!-- Messages -->
  <!-- Start survey -->
  <line x1="90" y1="120" x2="190" y2="120" class="arrow"/>
  <text x="140" y="115" class="message">/survey</text>
  
  <line x1="190" y1="140" x2="290" y2="140" class="arrow"/>
  <text x="240" y="135" class="message">Запуск опроса</text>
  
  <line x1="290" y1="160" x2="690" y2="160" class="arrow"/>
  <text x="490" y="155" class="message">Создать Response запись</text>
  
  <line x1="290" y1="180" x2="90" y2="180" class="arrow"/>
  <text x="190" y="175" class="message">💭 "Опишите ваш текущий момент"</text>
  
  <!-- User response -->
  <line x1="90" y1="220" x2="190" y2="220" class="arrow"/>
  <text x="140" y="215" class="message">Ответ пользователя</text>
  
  <line x1="190" y1="240" x2="290" y2="240" class="arrow"/>
  <text x="240" y="235" class="message">Обработка</text>
  
  <!-- Validation chain -->
  <line x1="290" y1="280" x2="390" y2="280" class="arrow"/>
  <text x="340" y="275" class="message">Базовая валидация</text>
  
  <line x1="390" y1="300" x2="290" y2="300" class="arrow"/>
  <text x="340" y="295" class="message">score=45</text>
  
  <line x1="290" y1="320" x2="490" y2="320" class="arrow"/>
  <text x="390" y="315" class="message">Улучшение валидации</text>
  
  <line x1="490" y1="340" x2="290" y2="340" class="arrow"/>
  <text x="390" y="335" class="message">score=38</text>
  
  <line x1="290" y1="360" x2="590" y2="360" class="arrow"/>
  <text x="440" y="355" class="message">ИИ-валидация</text>
  
  <line x1="590" y1="380" x2="290" y2="380" class="arrow"/>
  <text x="440" y="375" class="message">score=42</text>
  
  <!-- Feedback based on quality -->
  <rect x="200" y="420" width="180" height="60" fill="#ffebee" stroke="#f44336"/>
  <text x="290" y="440" class="note">Качество &lt; 40% (Низкое)</text>
  <text x="290" y="455" class="message">📖 Обучающая обратная связь</text>
  <text x="290" y="470" class="message">❓ Follow-up вопрос</text>
  
  <rect x="200" y="500" width="180" height="40" fill="#fff3e0" stroke="#ff9800"/>
  <text x="290" y="520" class="note">Качество 40-70% (Среднее)</text>
  <text x="290" y="535" class="message">💡 Конструктивные советы</text>
  
  <rect x="200" y="560" width="180" height="40" fill="#e8f5e8" stroke="#4caf50"/>
  <text x="290" y="580" class="note">Качество &gt; 70% (Высокое)</text>
  <text x="290" y="595" class="message">🎉 Позитивная обратная связь</text>
  
  <!-- Save results -->
  <line x1="290" y1="640" x2="690" y2="640" class="arrow"/>
  <text x="490" y="635" class="message">Сохранение результатов</text>
  
  <!-- Progress check -->
  <rect x="200" y="680" width="180" height="80" fill="#f3e5f5" stroke="#9c27b0"/>
  <text x="290" y="700" class="note">Проверка завершения дня</text>
  <text x="290" y="720" class="message">📊 Анализ прогресса</text>
  <text x="290" y="735" class="message">⏰ Планирование следующего</text>
  <text x="290" y="750" class="message">опроса</text>
  
  <!-- Note about the diagram -->
  <text x="400" y="800" class="note" text-anchor="middle">
    Диаграмма показывает полный цикл обработки ESM-опроса
  </text>
  <text x="400" y="820" class="note" text-anchor="middle">
    с многоуровневой валидацией и персонализированной обратной связью
  </text>
  
  <!-- Legend -->
  <rect x="50" y="860" width="700" height="120" fill="#f9f9f9" stroke="#ddd"/>
  <text x="400" y="880" class="title">Легенда</text>
  
  <rect x="70" y="900" width="15" height="15" fill="#ffebee"/>
  <text x="95" y="912" class="message">Низкое качество ответа (&lt;40%)</text>
  
  <rect x="270" y="900" width="15" height="15" fill="#fff3e0"/>
  <text x="295" y="912" class="message">Среднее качество (40-70%)</text>
  
  <rect x="470" y="900" width="15" height="15" fill="#e8f5e8"/>
  <text x="495" y="912" class="message">Высокое качество (&gt;70%)</text>
  
  <rect x="70" y="930" width="15" height="15" fill="#f3e5f5"/>
  <text x="95" y="942" class="message">Системные процессы</text>
  
  <line x1="270" y1="937" x2="320" y2="937" class="arrow"/>
  <text x="330" y="942" class="message">Направление обработки данных</text>
  
  <line x1="470" y1="937" x2="520" y2="937" class="lifeline"/>
  <text x="530" y="942" class="message">Жизненная линия компонента</text>
</svg>
